<?xml version="1.0" encoding="UTF-8" standalone="no"?>
<svg
   width="3000"
   height="3000"
   viewBox="0 0 3000 3000"
   version="1.1"
   id="svg5"
   sodipodi:docname="bubble_dark.svg"
   inkscape:version="1.3.2 (091e20ef0f, 2023-11-25, custom)"
   xmlns:inkscape="http://www.inkscape.org/namespaces/inkscape"
   xmlns:sodipodi="http://sodipodi.sourceforge.net/DTD/sodipodi-0.dtd"
   xmlns="http://www.w3.org/2000/svg"
   xmlns:svg="http://www.w3.org/2000/svg">
  <defs
     id="defs5" />
  <sodipodi:namedview
     id="namedview5"
     pagecolor="#505050"
     bordercolor="#ffffff"
     borderopacity="1"
     inkscape:showpageshadow="0"
     inkscape:pageopacity="0"
     inkscape:pagecheckerboard="1"
     inkscape:deskcolor="#d1d1d1"
     inkscape:zoom="0.27066667"
     inkscape:cx="1505.5419"
     inkscape:cy="1500"
     inkscape:window-width="1920"
     inkscape:window-height="1032"
     inkscape:window-x="0"
     inkscape:window-y="48"
     inkscape:window-maximized="1"
     inkscape:current-layer="svg5" />
  <path
     fill-rule="nonzero"
     fill="#5f5fd3"
     fill-opacity="1"
     d="m 2266.3711,1248.5 c 77.8672,355.6289 -221.3711,726.2383 -682.4102,870.8008 -40.3515,12.6523 -5.8906,148.6094 -48.5703,157.6367 -53.2422,11.2617 -182.2109,-105.8906 -234.4218,-101.2031 C 833.0195,2217.7422 421.82422,2002.6797 345.63672,1654.75 260.94531,1268 622.26172,863.53125 1152.6602,751.35156 1683.0508,639.17187 2181.6797,861.75 2266.3711,1248.5"
     id="path1"
     style="fill:#ffffff;opacity:0.65" />
  <path
     fill-rule="nonzero"
     fill="#8080ff"
     fill-opacity="1"
     d="m 2270.8789,1239.0703 c 74.5703,346.5195 -210.8789,707.3985 -650.9492,847.9531 -38.5195,12.2969 -78.3008,173.1758 -86.4609,170.3907 -49.2071,-16.7774 -133.8399,-120.1211 -183.6875,-115.5899 -446.7422,40.6367 -839.44927,-169.1523 -912.41021,-508.1758 -81.09765,-376.8476 263.60157,-770.66793 769.91021,-879.62887 506.3085,-108.96094 982.5,108.19922 1063.5976,485.05077"
     id="path2"
     style="fill:#ffffff;fill-opacity:1;opacity:1" />
  <path
     fill-rule="nonzero"
     fill="#ffffff"
     fill-opacity="1"
     d="m 1154.8711,1481.6602 c 10.0781,54.4492 -25.8828,106.7695 -80.3398,116.8593 -54.4532,10.0899 -106.7813,-25.8789 -116.8594,-80.3398 -10.0938,-54.4492 25.8789,-106.7695 80.3281,-116.8594 54.4609,-10.0898 106.7813,25.8789 116.8711,80.3399"
     id="path3"
     style="fill:#333333;fill-opacity:1" />
  <path
     fill-rule="nonzero"
     fill="#ffffff"
     fill-opacity="1"
     d="m 1431.8906,1430.3398 c 10.0782,54.461 -25.8789,106.7813 -80.3398,116.8711 -54.4492,10.0782 -106.7813,-25.8828 -116.8594,-80.3398 -10.0898,-54.4492 25.8789,-106.7813 80.3281,-116.8594 54.461,-10.0898 106.7813,25.8789 116.8711,80.3281"
     id="path4"
     style="fill:#333333;fill-opacity:1" />
  <path
     fill-rule="nonzero"
     fill="#ffffff"
     fill-opacity="1"
     d="m 1708.9102,1379.0313 c 10.0781,54.4492 -25.8789,106.7773 -80.3399,116.8593 -54.4609,10.0899 -106.7812,-25.8789 -116.8594,-80.332 -10.0898,-54.457 25.8789,-106.7773 80.3282,-116.8672 26.1523,-4.8398 53.1601,0.8984 75.0703,15.9688 21.9219,15.0586 36.9492,38.2187 41.8008,64.3711"
     id="path5"
     style="fill:#333333;fill-opacity:1" />
</svg>
