<svg xmlns="http://www.w3.org/2000/svg" xmlns:svg="http://www.w3.org/2000/svg" id="Capa_1" width="800" height="800" fill="#ededed" version="1.1" viewBox="0 0 28.769 28.769" xml:space="preserve"><g id="SVGRepo_iconCarrier"><g id="g1"><g id="c106_arrow"><path id="path1" d="M 28.678,5.798 14.713,23.499 c -0.16,0.201 -0.495,0.201 -0.658,0 L 0.088,5.798 C -0.009,5.669 -0.027,5.501 0.04,5.353 0.111,5.209 0.26,5.12 0.414,5.12 H 28.35 c 0.16,0 0.31,0.089 0.378,0.233 0.07,0.148 0.048,0.316 -0.05,0.445 z"/></g></g></g><g id="SVGRepo_iconCarrier-5" transform="translate(-0.01320629,-5.7837281)" style="fill:#333;fill-opacity:1"><g id="g2" style="fill:#333;fill-opacity:1"><g id="c106_arrow-6" style="fill:#333;fill-opacity:1"><path id="path1-2" d="M 28.678,5.798 14.713,23.499 c -0.16,0.201 -0.495,0.201 -0.658,0 L 0.088,5.798 C -0.009,5.669 -0.027,5.501 0.04,5.353 0.111,5.209 0.26,5.12 0.414,5.12 H 28.35 c 0.16,0 0.31,0.089 0.378,0.233 0.07,0.148 0.048,0.316 -0.05,0.445 z" style="fill:#333;fill-opacity:1"/></g></g></g><rect style="opacity:1;fill:#ededed;stroke-width:.0663938" id="rect1" width="14.957" height="3.38" x="7.078" y="9.486" ry=".044"/></svg>