<?xml version="1.0" encoding="UTF-8" standalone="no"?>
<!-- Uploaded to: SVG Repo, www.svgrepo.com, Transformed by: SVG Repo Mixer Tools -->

<svg
   fill="#ededed"
   height="800"
   width="800"
   version="1.1"
   id="Capa_1"
   viewBox="0 0 28.769 28.769"
   xml:space="preserve"
   sodipodi:docname="triangley_dark.svg"
   inkscape:export-filename="triangle_dark2.png"
   inkscape:export-xdpi="96"
   inkscape:export-ydpi="96"
   inkscape:version="1.3.2 (091e20ef0f, 2023-11-25, custom)"
   xmlns:inkscape="http://www.inkscape.org/namespaces/inkscape"
   xmlns:sodipodi="http://sodipodi.sourceforge.net/DTD/sodipodi-0.dtd"
   xmlns="http://www.w3.org/2000/svg"
   xmlns:svg="http://www.w3.org/2000/svg"><defs
   id="defs1" /><sodipodi:namedview
   id="namedview1"
   pagecolor="#505050"
   bordercolor="#ffffff"
   borderopacity="1"
   inkscape:showpageshadow="0"
   inkscape:pageopacity="0"
   inkscape:pagecheckerboard="1"
   inkscape:deskcolor="#d1d1d1"
   inkscape:zoom="1.015"
   inkscape:cx="392.61084"
   inkscape:cy="400"
   inkscape:window-width="1920"
   inkscape:window-height="1056"
   inkscape:window-x="0"
   inkscape:window-y="24"
   inkscape:window-maximized="1"
   inkscape:current-layer="Capa_1" />





<g
   id="SVGRepo_iconCarrier"> <g
   id="g1"> <g
   id="c106_arrow"> <path
   d="M 28.678,5.798 14.713,23.499 c -0.16,0.201 -0.495,0.201 -0.658,0 L 0.088,5.798 C -0.009,5.669 -0.027,5.501 0.04,5.353 0.111,5.209 0.26,5.12 0.414,5.12 H 28.35 c 0.16,0 0.31,0.089 0.378,0.233 0.07,0.148 0.048,0.316 -0.05,0.445 z"
   id="path1" /> </g> <g
   id="Capa_1_26_"> </g> </g> </g><g
   id="SVGRepo_iconCarrier-5"
   transform="translate(-0.01320629,-5.7837281)"
   style="fill:#333333;fill-opacity:1"> <g
   id="g2"
   style="fill:#333333;fill-opacity:1"> <g
   id="c106_arrow-6"
   style="fill:#333333;fill-opacity:1"> <path
   d="M 28.678,5.798 14.713,23.499 c -0.16,0.201 -0.495,0.201 -0.658,0 L 0.088,5.798 C -0.009,5.669 -0.027,5.501 0.04,5.353 0.111,5.209 0.26,5.12 0.414,5.12 H 28.35 c 0.16,0 0.31,0.089 0.378,0.233 0.07,0.148 0.048,0.316 -0.05,0.445 z"
   id="path1-2"
   style="fill:#333333;fill-opacity:1" /> </g> <g
   id="Capa_1_26_-9"
   style="fill:#333333;fill-opacity:1"> </g> </g> </g>

<rect
   style="opacity:1;fill:#ededed;stroke-width:0.0663938"
   id="rect1"
   width="14.956698"
   height="3.3803575"
   x="7.0782123"
   y="9.4864693"
   ry="0.043601967" /></svg>
