<svg xmlns="http://www.w3.org/2000/svg" width="682.667" height="682.667" preserveAspectRatio="xMidYMid meet" version="1.0" viewBox="0 0 512 512"><metadata>Created by potrace 1.11, written by Peter Selinger 2001-2013</metadata><g fill="#000" stroke="none"><path d="M1100 4827 c0 -9 141 -400 159 -442 5 -11 33 -85 61 -165 29 -80 74 -203 100 -275 26 -71 89 -242 139 -380 51 -137 110 -297 131 -355 64 -175 105 -286 176 -480 l67 -185 -32 -60 c-18 -33 -58 -105 -89 -160 -31 -55 -57 -102 -57 -105 0 -3 -8 -16 -17 -30 -9 -14 -63 -110 -121 -215 -57 -104 -113 -206 -124 -225 -11 -19 -35 -62 -53 -95 -91 -165 -162 -292 -170 -305 -6 -8 -23 -40 -39 -71 l-30 -56 -157 0 c-154 0 -157 -1 -175 -24 -10 -13 -19 -27 -19 -31 0 -4 -33 -70 -73 -145 -41 -76 -102 -192 -137 -258 -34 -66 -75 -142 -90 -170 -15 -27 -56 -104 -90 -170 -34 -66 -67 -125 -72 -132 -5 -7 -7 -16 -5 -20 3 -5 111 -8 239 -7 128 1 441 4 695 5 l461 4 31 60 c17 33 53 101 79 150 26 50 76 144 111 210 69 131 105 198 234 440 46 88 115 219 152 290 37 72 71 135 75 140 4 6 42 78 85 160 43 83 92 177 110 210 18 33 58 110 90 170 32 61 72 137 90 170 18 33 56 105 85 160 29 55 72 136 95 180 23 44 64 121 90 170 26 50 66 126 90 170 23 44 109 206 190 360 81 154 166 314 187 355 22 41 72 135 110 208 45 85 76 132 86 133 64 4 146 7 197 8 65 1 67 3 153 97 20 23 73 81 117 129 44 48 87 96 95 106 9 9 48 53 87 96 77 84 79 86 200 219 115 127 143 158 143 165 0 3 -353 6 -784 6 l-783 0 -71 -141 c-38 -78 -115 -233 -170 -346 -235 -482 -300 -611 -305 -603 -2 4 -21 62 -42 128 -20 66 -52 167 -70 225 -18 58 -59 186 -90 285 -31 99 -66 209 -77 245 -12 36 -20 65 -19 65 1 0 -9 32 -22 70 l-24 70 -601 1 c-373 0 -602 -3 -602 -9z" transform="translate(0.000000,512.000000) scale(0.100000,-0.100000)"/></g></svg>